<svg id="svg" version="1.1" xmlns="http://www.w3.org/2000/svg" xmlns:xlink="http://www.w3.org/1999/xlink" width="400" height="84.21052631578948" viewBox="0, 0, 400,84.21052631578948"><g id="svgg"><path id="path0" d="M0.000 42.083 L 0.000 84.167 200.000 84.167 L 400.000 84.167 400.000 42.083 L 400.000 0.000 200.000 0.000 L 0.000 0.000 0.000 42.083 M392.833 42.083 L 392.833 77.000 200.000 77.000 L 7.167 77.000 7.167 42.083 L 7.167 7.167 200.000 7.167 L 392.833 7.167 392.833 42.083 M21.000 38.583 L 21.000 56.167 24.500 56.167 L 28.000 56.167 28.000 59.667 L 28.000 63.167 35.083 63.167 L 42.167 63.167 42.167 59.667 L 42.167 56.167 45.667 56.167 L 49.167 56.167 49.167 38.583 L 49.167 21.000 45.583 21.000 L 42.000 21.000 42.000 38.500 L 42.000 56.000 40.333 56.000 L 38.667 56.000 38.667 52.500 L 38.667 49.000 35.083 49.000 L 31.500 49.000 31.500 52.500 L 31.500 56.000 29.833 56.000 L 28.167 56.000 28.167 38.500 L 28.167 21.000 24.583 21.000 L 21.000 21.000 21.000 38.583 M70.000 24.500 L 70.000 28.000 66.500 28.000 L 63.000 28.000 63.000 42.083 L 63.000 56.167 66.500 56.167 L 70.000 56.167 70.000 59.667 L 70.000 63.167 77.167 63.167 L 84.333 63.167 84.333 59.667 L 84.333 56.167 87.833 56.167 L 91.333 56.167 91.333 42.083 L 91.333 28.000 87.833 28.000 L 84.333 28.000 84.333 24.500 L 84.333 21.000 77.167 21.000 L 70.000 21.000 70.000 24.500 M105.167 42.083 L 105.167 63.167 108.750 63.167 L 112.333 63.167 112.333 56.167 L 112.333 49.167 119.250 49.167 L 126.167 49.167 126.167 56.167 L 126.167 63.167 129.835 63.167 L 133.504 63.167 133.460 56.125 L 133.417 49.083 129.958 49.038 L 126.500 48.993 126.500 45.580 L 126.500 42.167 129.917 42.167 L 133.333 42.167 133.333 40.361 C 133.333 39.367,133.383 36.180,133.444 33.277 L 133.554 28.000 130.027 28.000 L 126.500 28.000 126.500 24.500 L 126.500 21.000 115.833 21.000 L 105.167 21.000 105.167 42.083 M189.389 42.083 L 189.389 63.167 193.028 63.167 L 196.667 63.167 196.667 56.167 L 196.667 49.167 203.667 49.167 L 210.667 49.167 210.667 45.667 L 210.667 42.167 214.167 42.167 L 217.667 42.167 217.667 35.083 L 217.667 28.000 214.167 28.000 L 210.667 28.000 210.667 24.500 L 210.667 21.000 200.028 21.000 L 189.389 21.000 189.389 42.083 M231.500 24.583 L 231.500 28.167 235.000 28.167 L 238.500 28.167 238.500 42.083 L 238.500 56.000 235.000 56.000 L 231.500 56.000 231.500 59.583 L 231.500 63.167 242.083 63.167 L 252.667 63.167 252.667 59.583 L 252.667 56.000 249.167 56.000 L 245.667 56.000 245.667 42.083 L 245.667 28.167 249.167 28.167 L 252.667 28.167 252.667 24.583 L 252.667 21.000 242.083 21.000 L 231.500 21.000 231.500 24.583 M266.500 42.083 L 266.500 63.167 280.667 63.167 L 294.833 63.167 294.833 59.583 L 294.833 56.000 284.333 56.000 L 273.833 56.000 273.833 52.583 L 273.833 49.167 280.833 49.167 L 287.833 49.167 287.833 45.583 L 287.833 42.000 280.833 42.000 L 273.833 42.000 273.833 35.083 L 273.833 28.167 284.333 28.167 L 294.833 28.167 294.833 24.583 L 294.833 21.000 280.667 21.000 L 266.500 21.000 266.500 42.083 M308.667 42.083 L 308.667 63.167 322.833 63.167 L 337.000 63.167 337.000 59.583 L 337.000 56.000 326.417 56.000 L 315.833 56.000 315.833 42.083 L 315.833 28.167 326.417 28.167 L 337.000 28.167 337.000 24.583 L 337.000 21.000 322.833 21.000 L 308.667 21.000 308.667 42.083 M350.833 42.083 L 350.833 63.167 364.917 63.167 L 379.000 63.167 379.000 59.583 L 379.000 56.000 368.500 56.000 L 358.000 56.000 358.000 52.583 L 358.000 49.167 365.000 49.167 L 372.000 49.167 372.000 45.583 L 372.000 42.000 365.000 42.000 L 358.000 42.000 358.000 35.083 L 358.000 28.167 368.500 28.167 L 379.000 28.167 379.000 24.583 L 379.000 21.000 364.917 21.000 L 350.833 21.000 350.833 42.083 M154.500 24.583 L 154.500 28.000 161.417 28.000 L 168.333 28.000 168.333 24.583 L 168.333 21.167 161.417 21.167 L 154.500 21.167 154.500 24.583 M84.167 42.083 L 84.167 56.000 77.250 56.000 L 70.333 56.000 70.333 42.083 L 70.333 28.167 77.250 28.167 L 84.167 28.167 84.167 42.083 M126.167 35.083 L 126.167 42.000 119.250 42.000 L 112.333 42.000 112.333 35.083 L 112.333 28.167 119.250 28.167 L 126.167 28.167 126.167 35.083 M147.500 45.583 L 147.500 63.000 154.417 63.000 L 161.333 63.000 161.333 59.583 L 161.333 56.167 157.833 56.167 L 154.333 56.167 154.333 42.167 L 154.333 28.167 150.917 28.167 L 147.500 28.167 147.500 45.583 M168.500 38.583 L 168.500 49.000 171.917 49.000 L 175.333 49.000 175.333 38.583 L 175.333 28.167 171.917 28.167 L 168.500 28.167 168.500 38.583 M210.500 35.083 L 210.500 42.000 203.583 42.000 L 196.667 42.000 196.667 35.083 L 196.667 28.167 203.583 28.167 L 210.500 28.167 210.500 35.083 M161.500 52.583 L 161.500 56.000 164.917 56.000 L 168.333 56.000 168.333 52.583 L 168.333 49.167 164.917 49.167 L 161.500 49.167 161.500 52.583 M168.500 59.583 L 168.500 63.000 171.917 63.000 L 175.333 63.000 175.333 59.583 L 175.333 56.167 171.917 56.167 L 168.500 56.167 168.500 59.583 " stroke="none" fill="#fcfcfc" fill-rule="evenodd"></path><path id="path1" d="M154.333 14.833 L 154.333 15.667 151.667 15.667 L 149.000 15.667 149.000 16.583 L 149.000 17.500 147.250 17.500 L 145.500 17.500 145.500 18.333 L 145.500 19.167 144.667 19.167 L 143.833 19.167 143.833 20.083 L 143.833 21.000 142.917 21.000 L 142.000 21.000 142.000 21.833 L 142.000 22.667 141.083 22.667 L 140.167 22.667 140.167 23.583 L 140.167 24.500 139.333 24.500 L 138.500 24.500 138.500 25.333 L 138.500 26.167 137.583 26.167 L 136.667 26.167 136.667 27.917 L 136.667 29.667 135.833 29.667 L 135.000 29.667 135.000 32.333 L 135.000 35.000 134.188 35.000 L 133.376 35.000 133.253 41.903 C 133.116 49.619,133.058 49.167,134.177 49.167 L 135.000 49.167 135.000 51.833 L 135.000 54.500 135.833 54.500 L 136.667 54.500 136.667 56.250 L 136.667 58.000 137.583 58.000 L 138.500 58.000 138.500 58.833 L 138.500 59.667 139.333 59.667 L 140.167 59.667 140.167 60.583 L 140.167 61.500 141.083 61.500 L 142.000 61.500 142.000 62.333 L 142.000 63.167 142.917 63.167 L 143.833 63.167 143.833 64.083 L 143.833 65.000 144.667 65.000 L 145.500 65.000 145.500 65.833 L 145.500 66.667 147.250 66.667 L 149.000 66.667 149.000 67.583 L 149.000 68.500 151.667 68.500 L 154.333 68.500 154.333 69.333 L 154.333 70.167 161.417 70.167 L 168.500 70.167 168.500 69.333 L 168.500 68.500 171.167 68.500 L 173.833 68.500 173.833 67.583 L 173.833 66.667 175.583 66.667 L 177.333 66.667 177.333 65.833 L 177.333 65.000 178.167 65.000 L 179.000 65.000 179.000 64.083 L 179.000 63.167 179.917 63.167 L 180.833 63.167 180.833 62.333 L 180.833 61.500 181.667 61.500 L 182.500 61.500 182.500 60.583 L 182.500 59.667 183.417 59.667 L 184.333 59.667 184.333 58.833 L 184.333 58.000 185.167 58.000 L 186.000 58.000 186.000 56.250 L 186.000 54.500 186.917 54.500 L 187.833 54.500 187.833 51.833 L 187.833 49.167 188.667 49.167 L 189.500 49.167 189.500 42.083 L 189.500 35.000 188.667 35.000 L 187.833 35.000 187.833 32.333 L 187.833 29.667 186.917 29.667 L 186.000 29.667 186.000 27.917 L 186.000 26.167 185.167 26.167 L 184.333 26.167 184.333 25.333 L 184.333 24.500 183.417 24.500 L 182.500 24.500 182.500 23.583 L 182.500 22.667 181.667 22.667 L 180.833 22.667 180.833 21.833 L 180.833 21.000 179.917 21.000 L 179.000 21.000 179.000 20.083 L 179.000 19.167 178.167 19.167 L 177.333 19.167 177.333 18.333 L 177.333 17.500 175.583 17.500 L 173.833 17.500 173.833 16.583 L 173.833 15.667 171.167 15.667 L 168.500 15.667 168.500 14.833 L 168.500 14.000 161.417 14.000 L 154.333 14.000 154.333 14.833 M168.462 24.538 L 168.507 27.993 171.962 28.038 L 175.417 28.083 175.417 38.583 L 175.417 49.083 171.958 49.128 L 168.500 49.173 168.500 52.670 L 168.500 56.167 172.000 56.167 L 175.500 56.167 175.500 59.670 L 175.500 63.173 171.958 63.128 L 168.417 63.083 168.372 59.625 L 168.327 56.167 164.917 56.167 L 161.507 56.167 161.462 59.625 L 161.417 63.083 154.375 63.127 L 147.333 63.170 147.333 45.585 L 147.333 28.000 150.833 28.000 L 154.333 28.000 154.333 24.498 L 154.333 20.996 161.375 21.040 L 168.417 21.083 168.462 24.538 M154.410 28.208 C 154.366 28.323,154.350 34.642,154.374 42.250 L 154.417 56.083 157.875 56.128 L 161.333 56.173 161.333 52.670 L 161.333 49.167 164.833 49.167 L 168.333 49.167 168.333 38.583 L 168.333 28.000 161.411 28.000 C 156.027 28.000,154.472 28.046,154.410 28.208 " stroke="none" fill="#040404" fill-rule="evenodd"></path><path id="path2" d="" stroke="none" fill="#bc10080" fill-rule="evenodd"></path><path id="path3" d="" stroke="none" fill="#bc10080" fill-rule="evenodd"></path><path id="path4" d="" stroke="none" fill="#bc10080" fill-rule="evenodd"></path></g></svg>